<?xml version="1.0" standalone="no"?>
<!DOCTYPE svg PUBLIC "-//W3C//DTD SVG 20010904//EN"
 "http://www.w3.org/TR/2001/REC-SVG-20010904/DTD/svg10.dtd">
<svg version="1.0" xmlns="http://www.w3.org/2000/svg"
 width="1664.000000pt" height="928.000000pt" viewBox="0 0 1664.000000 928.000000"
 preserveAspectRatio="xMidYMid meet">

<g transform="translate(0.000000,928.000000) scale(0.100000,-0.100000)"
fill="#000000" stroke="none">
<path d="M7044 8080 c-31 -12 -63 -99 -73 -192 -20 -212 40 -475 148 -643 19
-30 19 -30 0 -70 -11 -22 -25 -69 -31 -105 -5 -36 -15 -71 -20 -77 -6 -7 -13
-42 -16 -78 -2 -37 -11 -70 -18 -76 -8 -6 -14 -18 -14 -26 0 -7 -7 -16 -15
-19 -8 -4 -15 -12 -15 -19 0 -7 -7 -18 -15 -25 -12 -10 -15 -45 -15 -199 0
-123 4 -191 11 -198 21 -21 -16 -80 -67 -109 -10 -6 -30 -17 -44 -25 -39 -23
-90 -75 -90 -93 0 -9 -7 -19 -15 -22 -9 -4 -15 -19 -15 -38 0 -18 -7 -41 -15
-52 -8 -10 -14 -28 -14 -39 0 -11 6 -29 14 -39 8 -11 15 -36 15 -57 0 -24 5
-39 15 -43 9 -3 15 -18 15 -34 0 -16 -7 -35 -15 -42 -8 -7 -15 -23 -15 -36 0
-12 -7 -29 -14 -37 -23 -22 -24 -210 -2 -232 9 -9 16 -25 16 -35 0 -10 7 -20
15 -24 8 -3 15 -10 15 -15 0 -5 16 -25 35 -44 l34 -34 -2 -117 c-2 -103 0
-119 16 -127 9 -6 17 -16 17 -24 0 -14 62 -85 75 -85 3 0 17 -12 30 -26 27
-29 33 -75 12 -96 -36 -37 -58 -220 -33 -273 9 -18 16 -42 16 -53 0 -11 7 -25
15 -32 8 -7 15 -23 15 -35 0 -13 7 -25 15 -29 20 -7 20 -76 0 -102 -8 -10 -15
-28 -15 -40 0 -11 -7 -29 -15 -40 -17 -22 -22 -229 -5 -239 5 -3 17 -22 27
-42 l17 -36 -39 -34 c-21 -18 -45 -33 -54 -33 -30 0 -248 -107 -313 -154 -37
-25 -104 -64 -150 -86 -116 -55 -114 -53 -120 -139 -5 -65 -4 -72 8 -56 10 13
12 36 8 74 l-5 56 20 -37 c12 -20 25 -40 31 -43 21 -13 8 -33 -78 -120 -95
-97 -213 -246 -240 -302 -20 -41 -14 -54 49 -102 24 -18 44 -39 44 -45 0 -6
-28 -63 -63 -127 l-62 -116 -58 -17 c-32 -9 -91 -16 -130 -16 -40 0 -72 -4
-72 -9 0 -5 7 -25 15 -45 9 -20 13 -47 9 -61 -5 -19 1 -33 25 -60 23 -27 31
-45 31 -75 0 -43 -27 -120 -41 -120 -5 0 -9 -28 -9 -62 0 -47 -5 -69 -20 -88
-11 -14 -20 -40 -20 -57 0 -41 -28 -70 -74 -78 -27 -6 -39 -15 -55 -45 -40
-76 -44 -80 -84 -80 -29 0 -63 14 -132 55 -108 64 -129 86 -112 122 8 17 7 40
-2 88 -7 36 -11 72 -7 80 10 27 -22 129 -48 151 -14 12 -40 50 -58 85 -31 60
-33 70 -33 166 0 56 3 105 7 109 8 8 153 -140 190 -194 42 -60 69 -54 213 47
94 66 195 165 195 191 0 68 -330 427 -445 485 -54 28 -60 34 -58 60 9 107 7
144 -11 182 -18 40 -18 43 -1 87 22 57 17 136 -12 194 -11 23 -17 42 -13 42
28 0 38 149 15 233 -6 21 -2 35 20 63 27 36 47 122 38 168 -3 14 6 38 21 61
35 52 35 114 0 160 -20 26 -24 41 -19 64 11 50 -4 94 -49 144 -24 26 -47 47
-52 47 -5 0 -9 39 -9 88 0 48 -5 105 -11 127 -7 22 -21 71 -32 109 l-21 69 28
56 c41 83 56 146 56 241 0 94 -17 153 -44 148 -18 -4 -67 -89 -113 -200 -17
-43 -38 -78 -45 -78 -7 0 -34 16 -59 36 -26 19 -60 38 -76 41 -15 3 -31 10
-34 14 -3 5 -12 9 -21 9 -9 0 -49 12 -89 28 -64 23 -74 30 -74 51 0 14 7 32
16 42 10 11 13 25 9 38 -7 22 -8 22 -140 22 -102 0 -102 0 -109 -23 -3 -13 -1
-27 4 -32 13 -13 13 -58 0 -91 -18 -46 2 -65 67 -65 71 0 183 -19 183 -31 0
-5 6 -9 13 -9 26 0 143 -125 169 -180 31 -67 55 -158 59 -225 3 -44 1 -50 -17
-48 -10 1 -86 9 -168 18 -170 20 -472 14 -566 -10 -14 -4 -60 -13 -103 -21
-42 -8 -94 -20 -115 -27 -36 -12 -37 -13 -36 -62 1 -28 2 -81 3 -120 1 -47 4
-65 11 -55 5 8 13 11 17 6 4 -4 -1 -14 -11 -22 -11 -8 -16 -14 -12 -14 5 0 3
-7 -4 -15 -16 -20 -16 -171 0 -190 16 -19 30 -19 30 0 0 8 -5 14 -12 12 -6 -1
-14 6 -16 16 -2 10 2 17 11 17 8 0 18 7 21 16 5 14 4 15 -9 4 -12 -10 -15 -10
-15 4 0 9 7 16 15 16 8 0 15 6 15 13 0 6 9 -6 19 -28 10 -22 31 -55 47 -74 27
-32 28 -39 25 -112 -3 -87 17 -163 67 -254 26 -48 74 -87 88 -72 4 4 -11 44
-34 89 -53 108 -62 144 -62 254 0 90 0 92 -34 127 -44 47 -56 100 -59 262 l-2
130 89 18 c98 19 116 18 116 -12 0 -11 16 -36 35 -56 30 -30 43 -35 80 -35 25
0 54 6 65 12 16 10 24 10 38 0 94 -68 152 -71 218 -11 19 18 23 18 57 4 62
-26 150 10 165 68 7 27 13 32 38 31 16 -1 58 -10 93 -20 l63 -19 -4 -135 c-5
-150 -17 -192 -68 -239 l-32 -29 -2 -118 c-4 -156 -12 -175 -90 -218 -33 -19
-86 -44 -117 -56 -115 -42 -297 -47 -416 -10 -75 23 -73 23 -73 11 0 -11 76
-43 152 -65 123 -35 361 -3 445 61 34 26 36 27 24 5 -31 -58 13 -67 101 -20
113 60 212 202 224 323 6 52 -16 327 -32 408 -6 27 -5 28 16 17 50 -27 78
-121 45 -154 -21 -21 -19 -28 15 -61 44 -42 55 -86 34 -127 -9 -18 -26 -41
-37 -51 -16 -13 -18 -20 -9 -29 17 -17 15 -114 -3 -148 -9 -16 -29 -37 -45
-45 -36 -18 -36 -22 -9 -75 15 -28 22 -60 22 -96 0 -41 -6 -63 -22 -84 -26
-36 -26 -35 4 -94 34 -68 34 -137 -1 -188 l-26 -37 25 -31 c32 -37 43 -87 29
-132 -6 -18 -14 -55 -18 -82 -9 -67 -40 -96 -104 -96 -47 0 -48 -1 -55 -37 -3
-20 -20 -49 -36 -66 -27 -26 -35 -29 -79 -25 -47 5 -50 3 -79 -33 -47 -58
-118 -81 -267 -87 -152 -5 -218 11 -276 68 -33 32 -45 38 -71 33 -45 -7 -96
30 -126 90 -22 44 -25 47 -63 47 -38 0 -98 26 -98 42 0 4 -13 36 -29 70 -16
35 -31 70 -34 78 -3 9 -6 6 -6 -8 -1 -13 3 -31 8 -40 12 -22 -2 -41 -54 -72
-22 -13 -52 -36 -66 -52 -14 -15 -31 -28 -37 -28 -6 0 -19 -14 -29 -31 -10
-17 -33 -37 -50 -46 -20 -9 -33 -23 -33 -34 0 -11 -6 -19 -14 -19 -8 0 -17 -9
-21 -19 -3 -11 -16 -26 -29 -35 -38 -24 -76 -62 -76 -75 0 -6 -4 -11 -10 -11
-5 0 -10 -4 -10 -9 0 -5 -13 -23 -29 -40 -16 -17 -38 -49 -50 -71 l-21 -40 73
-73 c44 -45 103 -91 152 -119 115 -66 115 -66 161 -15 57 64 136 154 161 185
31 37 43 21 50 -70 5 -67 2 -84 -22 -149 -20 -51 -42 -88 -72 -118 l-43 -44 0
-93 c0 -51 -5 -104 -12 -118 -9 -21 -8 -34 5 -67 11 -28 13 -47 7 -59 -18 -34
-134 -133 -178 -151 -40 -17 -43 -21 -31 -36 8 -10 19 -24 24 -31 6 -7 18 -22
28 -33 9 -10 17 -22 17 -26 0 -5 17 -28 38 -51 40 -47 23 -41 312 -117 52 -14
163 -34 245 -46 187 -27 454 -22 630 10 238 43 218 38 434 123 49 19 57 20 80
7 18 -10 27 -25 29 -47 2 -18 7 -32 12 -32 4 0 6 -10 2 -22 -3 -13 -1 -19 5
-15 6 4 14 19 18 34 5 20 2 31 -11 40 -10 7 -16 15 -13 17 3 4 118 -7 339 -32
62 -7 65 -8 71 -39 19 -93 110 -212 189 -248 32 -14 40 -24 40 -44 1 -46 34
-125 79 -184 24 -31 46 -57 50 -57 3 0 21 -13 39 -28 l33 -27 -11 -95 c-10
-90 -75 -507 -86 -560 l-5 -24 -21 32 c-16 26 -25 31 -42 26 -11 -4 -48 -10
-81 -13 l-60 -6 -3 -96 -3 -97 32 -11 c18 -6 58 -11 90 -11 55 0 59 -2 59 -23
0 -13 5 -28 12 -35 9 -9 588 -12 2545 -12 l2533 0 0 40 0 40 83 -6 c105 -8
196 2 204 23 5 13 -21 70 -86 190 -10 19 -19 23 -35 19 -80 -21 -125 -29 -139
-23 -25 9 -27 74 -25 702 l3 590 70 12 c39 7 75 10 81 8 6 -2 14 -17 17 -34 8
-38 29 -40 47 -5 11 20 11 27 2 33 -9 5 -5 12 13 21 22 12 30 12 54 -3 56 -33
208 -77 386 -112 213 -42 430 -55 610 -36 144 15 387 58 439 77 23 9 73 26
112 38 38 13 79 28 91 34 18 10 116 142 128 175 4 10 -15 27 -62 55 -37 22
-90 61 -117 86 -40 37 -47 48 -37 60 8 10 10 46 6 122 -10 181 -12 191 -55
235 -23 24 -49 68 -66 109 -24 62 -26 78 -22 155 3 48 9 89 12 92 7 7 103 -95
182 -191 25 -31 53 -56 63 -56 26 0 225 130 279 182 62 60 80 93 64 116 -7 9
-15 24 -19 32 -7 16 -10 20 -46 61 -61 72 -146 164 -181 197 -21 20 -55 53
-75 72 -55 54 -206 150 -235 150 -2 0 -13 -21 -26 -46 -28 -53 -46 -64 -114
-73 -47 -5 -52 -9 -62 -39 -17 -53 -55 -83 -110 -90 -40 -4 -58 -13 -97 -48
-59 -53 -85 -59 -247 -59 -154 0 -212 17 -282 83 -41 39 -52 44 -79 38 -62
-12 -107 23 -133 107 -4 13 -16 17 -49 17 -45 0 -87 29 -87 61 0 8 -6 23 -13
33 -13 18 -15 18 -48 1 -19 -10 -41 -23 -49 -30 -14 -12 -60 -40 -117 -70 -23
-12 -180 -179 -199 -211 -7 -10 -15 -16 -19 -12 -12 11 -7 906 5 928 14 27 12
32 -9 25 -13 -4 -20 0 -24 12 -2 10 -8 25 -11 34 -6 15 2 14 91 -2 146 -27
143 -26 142 -106 -1 -105 -13 -160 -47 -208 -28 -39 -31 -51 -33 -132 -2 -48
1 -99 5 -113 5 -17 4 -21 -2 -11 -8 11 -14 7 -31 -20 -49 -80 -10 -79 74 2 92
89 110 140 100 296 -4 65 -9 179 -10 253 -1 114 -5 142 -23 183 -28 62 -28 72
4 143 41 91 47 254 9 254 -8 0 -22 -11 -31 -25 -22 -34 -74 -177 -68 -187 3
-4 -19 1 -48 13 -29 12 -62 24 -73 27 -11 3 -22 8 -25 12 -9 11 -129 40 -170
40 -22 0 -75 -10 -118 -21 -42 -12 -95 -25 -117 -29 -22 -4 -57 -17 -78 -29
l-37 -23 -15 36 c-8 19 -15 39 -15 44 0 15 -49 109 -65 126 -14 14 -20 14 -32
4 -12 -10 -14 -27 -9 -88 7 -75 40 -195 57 -205 5 -4 9 -17 9 -30 0 -13 5 -25
12 -27 27 -9 -4 -37 -54 -48 -61 -13 -912 -10 -939 3 -13 6 -18 28 -21 96 -3
60 -9 94 -21 111 -9 14 -17 37 -17 52 0 15 -5 38 -12 52 -9 22 -7 31 15 63 43
62 59 120 60 218 2 87 -19 181 -53 245 -9 16 -6 22 19 34 45 24 108 102 131
162 21 58 28 186 10 214 -6 10 1 22 28 46 21 17 51 58 67 90 27 53 30 69 30
150 0 64 -5 101 -17 125 -9 19 -24 50 -33 69 -16 34 -16 36 9 80 37 64 34 182
-5 250 -5 8 -13 24 -18 35 -12 27 -72 85 -88 85 -7 0 -13 3 -13 8 0 4 -12 13
-27 20 -16 6 -41 30 -56 52 -24 35 -26 42 -15 62 8 16 12 77 13 201 l0 178
-46 44 c-39 37 -47 52 -53 94 -7 55 -52 199 -84 272 l-20 45 49 100 c57 114
82 191 105 324 33 191 0 431 -62 446 -71 18 -113 -37 -192 -249 -52 -139 -120
-287 -132 -287 -4 0 -35 25 -71 56 -78 68 -174 126 -294 176 -49 21 -97 42
-105 47 -8 4 -70 23 -137 41 l-122 33 -6 49 c-9 62 -54 102 -134 119 -104 21
-231 -6 -252 -55 -5 -12 -13 -28 -17 -36 -5 -8 -15 -28 -23 -45 -15 -30 -34
-39 -204 -87 -22 -6 -44 -15 -49 -20 -6 -4 -18 -8 -28 -8 -20 0 -133 -53 -157
-73 -21 -18 -85 -47 -103 -47 -15 0 -105 -65 -172 -123 l-39 -34 -48 101 c-27
56 -67 148 -89 206 -53 133 -86 195 -123 226 -31 26 -33 27 -63 14z m1383
-105 l36 -15 -6 -212 c-4 -116 -7 -303 -7 -414 l0 -203 -120 0 -120 1 0 27 c0
14 -5 196 -11 404 -12 403 -13 398 36 417 34 15 153 11 192 -5z m-314 -367 c4
-99 7 -248 7 -329 0 -164 2 -159 -72 -159 -53 0 -312 -44 -413 -71 -106 -27
-341 -104 -429 -140 -38 -16 -72 -27 -74 -24 -11 11 55 201 99 284 96 179 216
314 378 423 118 80 213 126 333 162 182 54 164 69 171 -146z m575 157 c46 -14
69 -31 156 -118 144 -143 226 -274 279 -442 30 -98 51 -185 45 -190 -2 -3 -56
8 -119 24 -125 32 -401 81 -454 81 -64 0 -61 -18 -57 318 1 169 5 318 8 331 5
21 9 23 47 18 23 -4 66 -13 95 -22z m-189 -726 c216 -13 458 -56 629 -111 l34
-10 -4 -178 c-1 -98 -6 -181 -10 -185 -3 -4 -53 1 -110 10 -239 38 -336 47
-600 52 -484 10 -839 -31 -1253 -144 -71 -19 -137 -36 -145 -37 -13 -1 -15 22
-18 145 l-3 145 38 21 c178 100 566 225 830 267 237 39 339 43 612 25z m211
-519 c191 -16 190 -15 144 -87 -34 -52 -74 -75 -133 -76 -59 -1 -110 24 -139
68 -12 19 -26 35 -31 35 -5 0 -29 -16 -53 -35 -66 -53 -96 -67 -157 -72 -73
-6 -137 25 -166 79 -26 49 -47 48 -113 -2 -104 -77 -208 -64 -259 34 -8 15
-11 32 -6 36 7 7 183 23 368 34 91 5 404 -3 545 -14z m-987 -65 c30 -64 94
-123 152 -141 63 -20 103 -14 181 26 l56 30 39 -34 c83 -76 244 -75 361 1 26
17 28 17 50 -4 57 -54 176 -69 254 -34 49 22 108 89 130 147 16 41 17 42 53
37 47 -7 55 -15 71 -64 21 -63 103 -142 173 -168 32 -11 69 -21 84 -21 l26 0
-7 -117 c-13 -202 -54 -283 -179 -357 -77 -45 -74 -34 -81 -236 -6 -153 -16
-218 -52 -341 l-26 -86 -97 -50 c-352 -186 -773 -191 -1159 -15 l-102 47 -19
65 c-44 148 -71 327 -71 467 0 40 -5 83 -11 96 -6 13 -34 37 -63 55 -65 38
-121 99 -149 161 -18 37 -22 70 -25 179 l-4 132 31 0 c16 0 55 9 85 20 64 24
149 109 184 183 21 44 32 51 83 56 8 0 23 -14 32 -34z m-193 -3 c0 -15 -70
-90 -104 -111 -18 -12 -52 -27 -75 -36 l-41 -14 0 63 0 64 68 16 c122 28 152
32 152 18z m1738 -18 l82 -17 0 -59 0 -58 -27 6 c-72 18 -139 64 -171 119
l-22 37 27 -6 c16 -2 65 -13 111 -22z m-2052 -255 c2 -227 10 -270 75 -371 33
-51 120 -128 144 -128 26 0 33 -28 43 -170 13 -175 39 -304 92 -463 22 -65 40
-126 40 -134 0 -21 -34 -11 -149 43 -274 129 -414 319 -438 590 -6 72 7 251
33 449 8 61 17 163 21 228 3 65 11 121 17 125 19 13 101 40 111 38 6 -2 10
-80 11 -207z m2331 173 c8 -5 17 -55 23 -127 6 -66 20 -185 31 -265 11 -80 23
-212 26 -295 5 -133 3 -160 -16 -233 -35 -135 -81 -214 -180 -313 -74 -73
-101 -93 -201 -142 -118 -59 -190 -80 -190 -57 0 7 15 53 34 104 67 179 106
395 106 583 l0 61 36 12 c19 7 38 10 41 7 8 -8 -15 -271 -33 -372 -17 -102
-58 -248 -86 -314 -20 -47 -19 -61 2 -36 7 8 18 15 24 15 16 0 82 47 150 105
116 100 202 243 230 387 19 91 21 322 5 448 -12 95 -27 440 -19 440 3 0 10 -4
17 -8z m-2567 -155 c0 -48 -21 -245 -36 -337 -23 -139 -20 -363 5 -463 39
-152 133 -300 243 -384 118 -91 309 -188 392 -199 42 -6 48 -4 82 30 35 35 36
39 31 86 l-6 50 47 -24 c81 -41 217 -84 334 -107 159 -31 393 -30 531 1 96 21
259 75 317 105 16 8 31 15 34 15 3 0 3 -21 0 -47 -4 -38 -1 -53 15 -70 48 -56
105 -53 261 14 257 108 433 311 486 561 21 101 17 277 -10 474 -29 210 -40
318 -32 318 15 0 90 -54 126 -90 43 -43 60 -90 60 -167 0 -54 -19 -85 -61 -98
-31 -10 -29 -34 6 -79 62 -81 70 -104 70 -197 0 -78 -3 -90 -30 -135 -20 -31
-47 -58 -74 -73 -47 -26 -47 -27 -16 -111 22 -59 15 -137 -18 -193 -33 -57
-53 -73 -123 -101 -33 -13 -60 -31 -62 -40 -2 -9 8 -37 23 -62 94 -160 86
-327 -22 -436 l-47 -47 36 -53 c54 -80 67 -111 78 -185 5 -37 10 -73 10 -80 0
-8 -71 -12 -267 -15 -253 -3 -270 -4 -309 -25 l-40 -21 -1 61 c0 73 -32 163
-68 197 l-25 24 -22 -21 -21 -22 28 -62 c18 -41 28 -81 29 -114 1 -113 -78
-215 -169 -215 -22 0 -45 -4 -51 -8 -6 -4 -13 -41 -16 -82 -11 -173 -126 -265
-268 -215 -39 14 -45 14 -62 -1 -29 -27 -22 -48 27 -72 50 -24 134 -29 196
-12 82 23 171 143 185 252 4 27 12 51 18 52 15 4 67 22 89 31 16 7 17 -3 15
-166 l-3 -174 -43 -23 c-108 -60 -305 -110 -468 -119 -190 -11 -367 24 -540
106 -131 63 -214 119 -290 197 l-61 63 -53 -20 c-28 -11 -59 -17 -69 -14 -9 3
-34 37 -56 75 -22 39 -58 98 -80 133 l-40 62 -58 0 -59 0 -20 50 c-16 37 -21
73 -22 140 0 100 15 147 78 234 l33 47 -40 34 c-76 64 -115 204 -87 318 6 28
30 81 52 117 22 37 37 72 34 80 -2 7 -28 21 -56 30 -70 23 -112 63 -145 137
-26 57 -27 67 -18 118 5 30 17 72 27 92 l16 38 -37 19 c-47 23 -74 53 -103
109 -42 80 -14 207 66 300 19 22 34 45 34 50 0 5 -13 15 -29 22 -16 6 -37 20
-46 31 -37 40 -28 157 17 214 22 29 128 115 141 115 4 0 7 -10 7 -23z m-2400
-731 c0 -13 3 -31 6 -40 5 -13 -2 -16 -36 -16 -34 0 -41 3 -36 16 3 9 6 27 6
40 0 20 5 24 30 24 25 0 30 -4 30 -24z m212 -650 c48 -6 90 -15 93 -18 12 -11
-26 -69 -51 -78 -42 -16 -71 -11 -104 16 l-31 27 -35 -42 c-32 -37 -40 -41
-81 -41 -40 0 -49 5 -83 41 l-37 41 -38 -26 c-43 -30 -71 -33 -103 -10 -25 17
-57 73 -47 82 20 20 390 26 517 8z m-802 -161 c0 -19 -4 -35 -10 -35 -10 0
-12 7 -12 35 0 28 2 35 12 35 6 0 10 -16 10 -35z m0 -170 c0 -14 -4 -25 -9
-25 -4 0 -6 11 -3 25 2 14 6 25 8 25 2 0 4 -11 4 -25z m3176 -660 c16 -25 12
-45 -10 -45 -20 0 -117 -41 -148 -62 -15 -11 -60 -28 -100 -39 -72 -20 -193
-83 -317 -166 -36 -24 -69 -43 -75 -43 -13 0 -46 31 -46 44 0 28 302 202 465
267 70 28 185 66 207 68 4 1 15 -10 24 -24z m-594 -566 c45 -56 142 -172 214
-257 l132 -156 -81 -99 c-44 -54 -83 -100 -87 -102 -3 -2 -49 24 -102 58 -318
203 -468 302 -468 310 0 27 277 347 301 347 4 0 45 -46 91 -101z m-2667 -289
c3 -5 1 -10 -4 -10 -6 0 -11 5 -11 10 0 6 2 10 4 10 3 0 8 -4 11 -10z m275
-36 c0 -16 -16 -19 -25 -4 -8 13 4 32 16 25 5 -4 9 -13 9 -21z m7605 -263 c24
-110 -4 -234 -70 -315 -24 -30 -47 -68 -51 -83 -4 -15 -10 -32 -15 -38 -10
-13 -14 -203 -5 -236 6 -22 2 -31 -31 -58 -47 -39 -184 -111 -210 -111 -30 0
-102 78 -109 118 -7 35 1 631 8 638 3 2 36 -18 74 -44 91 -62 142 -92 159 -92
7 0 23 12 35 27 44 57 195 223 201 223 4 0 10 -13 14 -29z m-4265 -6 c102 -8
326 -20 498 -27 l312 -12 0 -269 0 -270 -252 7 c-139 3 -316 11 -393 16 -128
9 -556 58 -563 65 -2 1 15 31 37 66 61 98 92 204 99 332 l5 107 36 0 c20 -1
119 -7 221 -15z m-344 -90 c-11 -146 -61 -269 -149 -362 -28 -30 -29 -35 -23
-90 21 -184 20 -241 -9 -327 l-27 -83 26 -28 c16 -18 26 -40 26 -59 0 -17 5
-92 10 -167 l11 -135 -51 -77 c-96 -146 -152 -188 -389 -294 -64 -29 -179 2
-278 75 -63 47 -108 146 -107 234 l0 68 -28 0 c-72 0 -167 85 -193 174 -29 96
-11 210 45 291 l28 40 -29 40 c-34 48 -53 132 -46 197 13 108 101 224 197 259
l43 15 -2 73 c-1 40 1 71 6 69 4 -2 71 -34 148 -72 201 -98 396 -178 420 -172
11 3 63 58 116 123 95 118 250 293 258 293 2 0 1 -38 -3 -85z m-3450 -32 c-10
-10 -19 5 -10 18 6 11 8 11 12 0 2 -7 1 -15 -2 -18z m6564 -138 l0 -95 50 0
c64 0 146 -31 196 -74 48 -42 110 -160 125 -239 13 -71 1 -137 -40 -223 -91
-192 -328 -233 -441 -78 -14 19 -42 42 -63 51 -47 19 -112 92 -126 141 -9 31
-10 20 -7 -63 5 -110 36 -232 86 -339 16 -33 27 -62 25 -64 -6 -6 -47 19 -109
66 -193 148 -261 420 -170 677 65 185 253 330 432 334 l42 1 0 -95z m-6056 -6
c-10 -16 -24 -9 -24 12 0 18 2 19 15 9 8 -7 12 -16 9 -21z m-144 -290 c0 -5
-4 -9 -10 -9 -5 0 -10 7 -10 16 0 8 5 12 10 9 6 -3 10 -10 10 -16z m8520 -14
c0 -8 -4 -15 -10 -15 -5 0 -7 7 -4 15 4 8 8 15 10 15 2 0 4 -7 4 -15z m-8430
-20 c0 -8 -2 -15 -4 -15 -2 0 -6 7 -10 15 -3 8 -1 15 4 15 6 0 10 -7 10 -15z
m3050 0 c234 -30 543 -55 818 -67 l282 -12 0 -245 0 -244 -212 6 c-117 4 -289
13 -383 22 -178 15 -604 80 -616 93 -3 4 -12 40 -18 79 -10 57 -10 88 -1 144
11 64 9 135 -6 212 -7 32 -14 32 136 12z m-3063 -107 c-3 -8 -6 -5 -6 6 -1 11
2 17 5 13 3 -3 4 -12 1 -19z m-197 -48 c0 -5 -2 -10 -4 -10 -3 0 -8 5 -11 10
-3 6 -1 10 4 10 6 0 11 -4 11 -10z m8178 -126 c-4 -3 -12 5 -18 18 -12 22 -12
22 6 6 10 -10 15 -20 12 -24z m-7918 -24 c0 -5 -2 -10 -4 -10 -3 0 -8 5 -11
10 -3 6 -1 10 4 10 6 0 11 -4 11 -10z m3015 -255 c48 -9 146 -22 219 -31 72
-8 181 -21 241 -29 61 -8 223 -20 360 -26 155 -8 253 -16 257 -23 4 -6 8 -112
8 -234 l0 -224 -97 7 c-209 13 -466 40 -638 66 -70 11 -380 73 -422 85 -22 6
-23 11 -23 99 0 57 -6 109 -15 135 -8 23 -15 76 -15 116 0 86 -9 82 125 59z"/>
<path d="M7616 6243 c-10 -3 -39 -16 -64 -29 -25 -13 -55 -24 -67 -24 -33 0
-68 -31 -60 -53 5 -12 19 -17 51 -17 43 0 44 -1 44 -31 0 -97 58 -169 136
-169 39 0 51 5 79 33 56 56 69 158 28 228 -29 48 -93 76 -147 62z"/>
<path d="M8954 6236 c-75 -33 -107 -152 -64 -240 25 -52 61 -76 115 -76 80 0
135 60 135 149 l0 51 33 0 c37 0 57 15 57 42 0 12 -13 21 -42 29 -24 6 -69 22
-100 35 -65 27 -90 29 -134 10z"/>
<path d="M8052 5813 c2 -23 13 -33 55 -53 28 -14 81 -45 117 -70 l66 -45 0
-93 c0 -85 -2 -95 -24 -117 -48 -48 -161 -57 -214 -18 -14 11 -31 34 -37 53
-15 45 -39 60 -61 38 -43 -42 40 -169 121 -184 60 -11 139 1 198 30 l56 27 46
-26 c49 -29 137 -43 199 -31 89 17 176 154 117 185 -21 12 -34 1 -45 -36 -10
-32 -61 -71 -102 -79 -45 -8 -104 9 -144 42 -29 25 -30 27 -30 118 l0 93 73
47 c39 25 92 56 117 68 35 18 45 28 45 48 0 57 -99 33 -186 -45 -38 -34 -71
-55 -85 -55 -13 0 -41 15 -61 34 -70 62 -133 96 -181 96 -41 0 -43 -1 -40 -27z"/>
<path d="M7448 4513 c-26 -32 -38 -73 -38 -129 0 -82 34 -139 113 -189 39 -25
125 -24 170 3 l35 20 12 -29 c26 -62 123 -118 203 -119 78 0 157 51 157 101 0
40 -26 44 -73 9 -98 -72 -223 -10 -245 122 -10 61 -41 64 -79 9 -15 -22 -38
-44 -51 -50 -58 -27 -124 0 -153 62 -23 52 -24 96 -3 141 9 19 14 41 11 50 -8
21 -40 20 -59 -1z"/>
<path d="M4432 5930 c0 -14 2 -19 5 -12 2 6 2 18 0 25 -3 6 -5 1 -5 -13z"/>
<path d="M11744 5539 c-35 -70 -10 -281 46 -375 26 -45 29 -194 5 -214 -11 -9
-15 -34 -15 -100 0 -73 -3 -91 -20 -110 -11 -13 -20 -31 -20 -42 0 -10 -7 -18
-15 -18 -8 0 -15 -7 -15 -16 0 -14 3 -14 15 -4 9 7 18 10 21 7 4 -3 1 -91 -6
-194 -17 -266 -1 -337 105 -451 56 -60 155 -122 197 -122 16 0 19 5 13 29 l-6
30 53 -29 c58 -30 199 -60 286 -60 59 0 198 32 246 57 46 24 15 27 -62 7 -104
-28 -235 -24 -351 10 -52 15 -124 43 -162 61 -83 42 -89 56 -96 227 -5 111 -7
118 -30 133 -49 33 -63 85 -63 247 0 167 -6 155 93 181 l58 15 19 -44 c12 -27
32 -52 52 -64 37 -22 103 -26 142 -9 21 10 29 8 51 -9 63 -49 140 -52 194 -6
28 23 33 24 70 13 21 -6 55 -9 74 -5 43 8 87 56 87 94 0 27 0 26 -21 -8 -11
-19 -28 -41 -37 -47 -24 -20 -86 -16 -115 7 -33 26 -36 26 -66 -11 -21 -24
-36 -32 -74 -36 -46 -5 -49 -4 -88 37 l-40 42 -22 -20 c-12 -12 -41 -24 -64
-28 -39 -6 -45 -4 -78 29 -39 39 -44 62 -17 75 9 5 82 15 162 22 149 12 339 4
440 -19 25 -6 79 -16 120 -22 41 -7 86 -16 99 -21 l24 -9 -5 -149 c-6 -166
-23 -221 -79 -261 -29 -21 -30 -21 -23 -93 8 -95 -8 -172 -59 -273 -22 -45
-37 -86 -33 -90 16 -17 62 25 93 87 23 45 37 91 45 150 7 47 15 87 18 90 9 9
10 30 2 30 -5 0 -9 7 -9 15 0 8 5 15 11 15 6 0 4 5 -4 10 -11 7 -12 12 -3 21
9 9 16 8 28 -5 9 -9 21 -16 26 -16 5 0 9 -5 9 -11 0 -6 -9 -9 -20 -6 -11 3
-20 1 -20 -4 0 -5 6 -9 13 -9 7 0 24 -5 38 -12 23 -11 25 -15 15 -40 -8 -22
-8 -31 3 -37 10 -7 10 -13 2 -29 -14 -26 -14 -42 -1 -42 10 0 33 39 44 77 6
18 4 22 -8 17 -9 -3 -16 -1 -16 5 0 6 6 11 14 11 20 0 33 122 16 158 -12 27
-12 27 -29 7 -20 -24 -51 -50 -51 -42 0 3 12 18 26 32 14 14 24 28 22 31 -3 2
-17 -10 -33 -26 -44 -46 -48 -36 -12 30 20 38 38 60 50 60 10 0 17 8 17 20 0
11 -5 20 -11 20 -6 0 -8 7 -5 16 4 9 1 23 -6 31 -7 9 -13 54 -15 106 -2 51 0
87 3 80 9 -20 32 -3 44 33 14 42 2 131 -35 257 -31 107 -31 109 -1 160 50 86
73 275 41 337 -30 58 -41 45 -122 -145 -17 -38 -33 -78 -36 -87 -9 -27 -34
-22 -80 16 -57 46 -97 65 -164 77 -31 6 -78 20 -105 32 -54 23 -62 47 -28 89
30 39 11 48 -102 48 l-98 0 0 -27 c0 -16 7 -37 15 -47 13 -17 13 -21 -3 -35
-23 -21 -102 -55 -177 -77 -72 -21 -132 -49 -162 -76 -12 -11 -28 -18 -36 -15
-7 3 -37 59 -66 126 -77 174 -95 192 -127 130z m720 -104 c32 -29 32 -35 4
-35 -17 0 -19 3 -9 9 9 6 10 11 2 15 -6 4 -11 2 -11 -4 0 -6 -6 -8 -12 -4 -7
4 -5 -2 5 -13 9 -11 14 -22 11 -26 -9 -9 -64 21 -64 36 -1 6 -6 3 -13 -8 -7
-11 -23 -21 -37 -23 -18 -2 -21 0 -11 6 9 7 10 12 2 16 -15 10 -14 29 2 23 6
-2 23 4 36 14 32 26 63 24 95 -6z m551 -1175 c3 -5 1 -10 -4 -10 -6 0 -11 5
-11 10 0 6 2 10 4 10 3 0 8 -4 11 -10z"/>
<path d="M3940 5545 c-7 -9 -10 -27 -7 -44 3 -15 1 -33 -6 -40 -8 -8 -7 -11 4
-11 11 0 12 -2 1 -9 -17 -10 -19 -76 -3 -94 6 -8 13 -39 17 -70 6 -50 8 -55
20 -40 13 17 14 17 12 -2 -4 -62 2 -85 23 -85 15 0 19 -5 15 -15 -3 -9 0 -15
10 -15 8 0 13 4 10 8 -10 17 -14 62 -5 62 5 0 9 10 9 22 l0 22 -16 -22 c-22
-31 -38 -28 -29 6 4 15 8 33 8 40 0 6 8 12 18 12 9 0 19 6 22 14 7 18 47 9 47
-11 0 -8 4 -12 9 -8 6 3 -5 35 -24 73 -19 37 -43 92 -55 122 -24 62 -46 100
-59 100 -5 0 -14 -7 -21 -15z m85 -221 c0 -20 -4 -39 -10 -41 -6 -2 -9 13 -9
34 2 52 3 55 12 50 4 -3 7 -22 7 -43z"/>
<path d="M4405 5364 c9 -9 18 -14 21 -11 9 9 -6 27 -22 27 -13 0 -13 -2 1 -16z"/>
<path d="M4267 5354 c-3 -3 -3 -12 0 -20 3 -8 0 -14 -6 -14 -6 0 -11 -10 -11
-21 0 -19 -2 -20 -16 -8 -10 8 -12 15 -5 17 12 4 15 32 4 32 -17 -1 -43 -28
-43 -46 0 -16 -2 -17 -10 -4 -8 12 -10 9 -10 -12 0 -18 -5 -28 -14 -28 -8 0
-17 -4 -20 -8 -3 -5 12 -8 32 -7 43 2 62 -3 62 -17 0 -5 -5 -6 -12 -2 -8 5 -9
0 -5 -15 3 -12 -1 -27 -9 -35 -16 -17 -19 -36 -5 -36 5 0 12 9 16 19 6 19 55
36 55 20 0 -5 -4 -9 -9 -9 -5 0 -11 -11 -13 -25 -6 -28 1 -32 21 -12 11 10 14
10 18 0 3 -7 9 -13 14 -13 4 0 6 7 3 15 -3 8 1 22 10 31 13 13 19 14 31 4 11
-9 15 -9 15 -1 0 6 -4 11 -10 11 -5 0 -10 5 -10 10 0 6 7 10 16 10 11 0 14 5
10 16 -3 9 -6 22 -6 29 0 20 -41 30 -51 14 -7 -12 -10 -12 -21 0 -7 8 -8 11
-3 9 6 -3 16 0 23 8 11 12 9 14 -8 14 -16 0 -20 7 -21 33 -1 17 -1 35 0 40 1
9 -4 9 -12 1z m-47 -88 c0 -11 -19 -15 -25 -6 -3 5 1 10 9 10 9 0 16 -2 16 -4z
m46 -24 c-9 -9 -37 8 -31 18 5 8 11 7 21 -1 8 -6 12 -14 10 -17z m4 -21 c0 -5
-7 -12 -16 -15 -14 -5 -15 -4 -4 9 14 17 20 19 20 6z m70 -6 c-7 -8 -19 -15
-27 -15 -11 0 -11 3 -1 15 18 20 45 21 28 0z"/>
<path d="M4316 5348 c3 -5 15 -6 26 -2 14 4 18 2 14 -5 -4 -6 -1 -11 6 -12 7
-1 2 -4 -12 -8 -14 -4 -30 -4 -37 1 -13 10 -27 -7 -18 -22 3 -6 15 -6 30 0 17
6 25 5 29 -5 2 -8 1 -16 -5 -19 -5 -2 -4 -3 3 -2 7 2 12 11 12 20 -1 10 6 16
17 16 25 0 24 12 -3 30 -25 16 -71 22 -62 8z"/>
<path d="M4650 5310 c0 -5 7 -10 15 -10 8 0 15 5 15 10 0 6 -7 10 -15 10 -8 0
-15 -4 -15 -10z"/>
<path d="M4510 5304 c0 -3 7 -12 15 -20 13 -14 15 -13 15 5 0 12 -6 21 -15 21
-8 0 -15 -3 -15 -6z"/>
<path d="M4386 5265 c-3 -8 -1 -15 4 -15 6 0 10 7 10 15 0 8 -2 15 -4 15 -2 0
-6 -7 -10 -15z"/>
<path d="M4415 5270 c3 -5 8 -10 11 -10 2 0 4 5 4 10 0 6 -5 10 -11 10 -5 0
-7 -4 -4 -10z"/>
<path d="M4050 5236 c0 -9 5 -16 10 -16 6 0 10 4 10 9 0 6 -4 13 -10 16 -5 3
-10 -1 -10 -9z"/>
<path d="M4415 5240 c-3 -5 -1 -10 4 -10 6 0 11 5 11 10 0 6 -2 10 -4 10 -3 0
-8 -4 -11 -10z"/>
<path d="M4380 5203 c0 -42 12 -37 17 7 1 16 -2 30 -7 30 -6 0 -10 -16 -10
-37z"/>
<path d="M4130 5212 c0 -5 7 -9 15 -9 8 0 12 4 9 9 -3 4 -9 8 -15 8 -5 0 -9
-4 -9 -8z"/>
<path d="M4170 5205 c0 -6 7 -12 15 -12 8 0 15 6 15 12 0 6 -7 12 -15 12 -8 0
-15 -6 -15 -12z"/>
<path d="M4046 5191 c-4 -7 -5 -15 -2 -18 9 -9 19 4 14 18 -4 11 -6 11 -12 0z"/>
<path d="M4416 5188 c3 -4 9 -8 15 -8 5 0 9 4 9 8 0 5 -7 9 -15 9 -8 0 -12 -4
-9 -9z"/>
<path d="M4110 5180 c0 -5 5 -10 10 -10 6 0 10 -5 10 -11 0 -5 -4 -8 -8 -5 -4
2 -8 -10 -9 -27 0 -21 1 -24 4 -9 2 12 9 20 14 17 5 -4 9 -3 10 2 0 4 2 18 5
31 3 17 -1 22 -16 22 -11 0 -20 -4 -20 -10z"/>
<path d="M4340 5110 c-13 -8 -12 -10 3 -10 9 0 17 5 17 10 0 12 -1 12 -20 0z"/>
<path d="M4020 5100 c0 -5 5 -10 11 -10 5 0 7 5 4 10 -3 6 -8 10 -11 10 -2 0
-4 -4 -4 -10z"/>
<path d="M4143 5092 c-8 -14 -19 -18 -38 -14 -17 3 -30 0 -36 -9 -6 -10 -9
-10 -9 -1 0 6 -7 12 -15 12 -8 0 -14 -3 -14 -7 3 -19 -2 -33 -12 -33 -5 0 -7
5 -3 11 4 7 -2 6 -17 -1 l-23 -13 24 -9 c33 -12 35 -15 17 -33 -17 -17 -32
-20 -22 -5 3 6 1 10 -5 10 -7 0 -10 -27 -9 -75 1 -41 5 -75 10 -75 9 0 13 28
10 62 -2 12 3 16 13 12 9 -3 16 -15 16 -26 0 -21 22 -48 39 -48 6 0 11 9 11
19 0 10 7 21 15 25 18 7 21 -20 3 -28 -7 -3 1 -3 17 -1 17 2 34 4 39 4 4 1 6
8 3 16 -8 18 13 32 23 15 6 -9 10 -6 15 10 5 16 0 29 -20 50 -19 20 -25 34
-20 49 5 17 9 18 20 8 9 -8 10 -16 3 -25 -8 -9 -7 -11 6 -6 18 7 22 39 6 49
-15 10 -12 35 5 35 8 0 15 -5 15 -11 0 -6 7 -3 16 5 8 9 20 14 25 11 5 -4 9
-2 9 4 0 6 -19 8 -49 5 -39 -3 -50 -1 -53 11 -2 13 -5 12 -15 -3z m-39 -63
c-8 -14 -24 -10 -24 6 0 9 6 12 15 9 8 -4 12 -10 9 -15z m43 6 c0 -8 -4 -15
-9 -15 -4 0 -8 7 -8 15 0 8 4 15 8 15 5 0 9 -7 9 -15z m-82 -34 c-6 -5 -25 10
-25 20 0 5 6 4 14 -3 8 -7 12 -15 11 -17z m-45 -41 c0 -5 -2 -10 -4 -10 -3 0
-8 5 -11 10 -3 6 -1 10 4 10 6 0 11 -4 11 -10z m55 -10 c3 -5 1 -10 -4 -10 -6
0 -11 5 -11 10 0 6 2 10 4 10 3 0 8 -4 11 -10z"/>
<path d="M4296 5055 c-3 -9 -6 -24 -5 -33 0 -9 5 -4 10 12 9 32 6 48 -5 21z"/>
<path d="M4216 5031 c-3 -5 1 -11 9 -14 9 -4 12 -1 8 9 -6 16 -10 17 -17 5z"/>
<path d="M4237 4975 c-10 -14 -13 -25 -7 -25 5 0 10 5 10 11 0 5 5 7 10 4 6
-3 10 3 10 14 0 26 -1 26 -23 -4z"/>
<path d="M4447 4973 c-10 -9 -9 -23 2 -23 5 0 11 7 15 15 5 15 -5 20 -17 8z"/>
<path d="M4305 4950 c-3 -5 -1 -10 4 -10 6 0 11 5 11 10 0 6 -2 10 -4 10 -3 0
-8 -4 -11 -10z"/>
<path d="M4233 4943 c-26 -5 -31 -28 -8 -37 9 -3 15 0 15 9 0 8 3 14 8 14 19
-3 33 2 27 11 -3 6 -9 9 -13 9 -4 -1 -17 -4 -29 -6z"/>
<path d="M4337 4930 c-17 -17 -17 -18 0 -21 36 -9 136 -4 140 6 2 7 -17 10
-47 10 -27 0 -50 2 -50 6 0 16 -26 15 -43 -1z"/>
<path d="M4285 4910 c3 -5 8 -10 11 -10 2 0 4 5 4 10 0 6 -5 10 -11 10 -5 0
-7 -4 -4 -10z"/>
<path d="M13020 4724 c0 -3 20 -33 45 -66 47 -63 55 -94 30 -131 -13 -21 -12
-26 12 -60 16 -23 28 -55 31 -86 4 -44 1 -53 -22 -76 -24 -24 -26 -31 -17 -58
26 -73 -3 -160 -64 -195 -17 -9 -17 -11 -1 -43 30 -57 32 -137 6 -196 l-22
-52 21 -44 c28 -58 27 -122 -3 -179 -24 -44 -24 -46 -6 -73 23 -36 33 -101 21
-142 -14 -47 14 -45 29 2 12 36 7 94 -12 151 -9 25 -8 40 5 73 21 52 21 102 1
170 -14 49 -14 56 2 95 19 48 22 127 5 178 -11 33 -9 38 25 89 36 53 36 55 31
130 -6 67 -4 79 13 94 33 30 35 77 6 140 -20 44 -24 66 -20 97 7 43 -3 70 -49
131 -27 35 -67 66 -67 51z"/>
<path d="M4163 4609 c-59 -34 -65 -46 -26 -51 21 -2 29 -10 35 -36 6 -21 17
-36 34 -42 36 -14 42 -13 69 15 18 17 25 35 25 62 0 44 -6 55 -37 72 -31 16
-42 14 -100 -20z"/>
<path d="M4861 4614 c-25 -32 -27 -81 -5 -112 11 -16 25 -22 53 -22 45 0 69
16 74 50 3 16 11 26 25 28 37 6 25 30 -28 57 -64 32 -93 32 -119 -1z"/>
<path d="M11680 4624 c0 -8 5 -12 10 -9 6 3 10 10 10 16 0 5 -4 9 -10 9 -5 0
-10 -7 -10 -16z"/>
<path d="M11973 4614 c-46 -28 -56 -54 -22 -54 14 0 25 -11 35 -35 35 -84 144
-53 144 40 0 72 -79 96 -157 49z"/>
<path d="M12707 4633 c-21 -5 -47 -53 -47 -85 0 -13 7 -34 16 -46 31 -45 124
-16 124 38 0 16 7 20 30 20 43 0 37 14 -17 44 -51 29 -79 37 -106 29z"/>
<path d="M11645 4571 c-3 -17 -1 -39 5 -51 10 -18 8 -26 -8 -43 -51 -56 -58
-136 -17 -185 14 -17 25 -42 25 -56 0 -35 16 -33 36 5 15 30 15 32 -13 61 -23
24 -28 37 -26 73 1 44 21 93 46 113 12 10 11 19 -2 62 -18 56 -36 64 -46 21z"/>
<path d="M3847 4504 c-3 -31 -13 -64 -21 -73 -21 -23 -21 -104 0 -125 12 -12
16 -39 17 -104 2 -80 4 -91 35 -135 17 -26 32 -58 32 -70 1 -20 2 -20 16 6 14
27 14 29 -19 68 -40 46 -49 85 -36 154 8 44 7 52 -16 85 -37 53 -30 117 16
166 19 21 20 24 5 53 -9 17 -18 31 -20 31 -2 0 -6 -25 -9 -56z"/>
<path d="M5421 4431 c-15 -28 -14 -176 2 -193 6 -7 20 -30 31 -50 17 -33 18
-51 11 -179 -4 -79 -12 -152 -18 -163 -5 -12 -14 -29 -18 -38 -5 -9 -10 -90
-11 -180 -3 -161 -3 -163 24 -208 47 -79 120 -140 167 -140 16 0 1 61 -23 93
-15 21 -21 49 -26 119 -3 61 -9 93 -18 96 -29 9 -54 84 -57 171 -1 47 0 92 2
101 5 18 84 50 124 50 14 0 30 5 36 11 20 20 329 16 450 -6 56 -10 107 -21
114 -26 10 -6 13 -32 11 -95 -2 -103 -14 -153 -46 -191 -19 -23 -24 -45 -30
-118 -5 -69 -13 -105 -36 -152 -34 -73 -26 -78 44 -32 121 81 153 161 136 349
-5 63 -10 160 -10 216 0 68 -7 126 -20 180 l-20 78 26 66 c41 100 46 260 9
260 -15 0 -63 -86 -84 -152 -7 -21 -16 -40 -20 -43 -7 -4 -96 30 -180 69 -13
6 -70 11 -125 11 -84 -1 -109 -4 -145 -23 -25 -12 -59 -22 -75 -22 -17 0 -46
-9 -65 -21 -34 -21 -61 -20 -61 3 0 26 -52 146 -70 163 -17 16 -19 16 -29 -4z"/>
<path d="M12990 4444 c0 -7 27 -34 34 -34 13 0 5 16 -14 28 -11 7 -20 10 -20
6z"/>
<path d="M12251 4401 c-8 -14 -6 -22 8 -35 9 -9 21 -16 26 -16 4 0 23 -11 42
-26 29 -22 33 -30 33 -74 0 -45 -3 -51 -30 -65 -40 -21 -54 -19 -88 10 -17 14
-35 25 -41 25 -22 0 -10 -39 20 -64 36 -30 84 -34 130 -10 28 14 34 14 64 0
76 -36 165 -4 165 60 0 20 -25 17 -41 -5 -21 -29 -87 -32 -113 -5 -16 16 -22
81 -8 99 11 15 70 55 81 55 13 0 32 35 24 44 -13 13 -52 5 -87 -19 -39 -27
-61 -31 -71 -15 -4 6 -28 22 -55 35 -47 24 -50 24 -59 6z"/>
<path d="M4660 4399 c-14 -6 -37 -22 -52 -36 l-27 -26 -38 26 c-21 15 -53 30
-71 33 -27 5 -32 4 -32 -12 0 -12 18 -29 50 -47 96 -52 95 -148 -2 -163 -27
-5 -40 -1 -65 20 -48 40 -62 8 -17 -38 21 -21 36 -26 73 -26 26 0 56 7 69 16
21 14 26 14 56 0 62 -29 141 -13 167 35 19 37 -5 46 -42 15 -22 -18 -39 -26
-53 -22 -12 3 -26 6 -33 6 -25 0 -43 32 -43 76 0 43 2 45 56 80 35 23 54 41
52 51 -4 21 -17 24 -48 12z"/>
<path d="M3930 4295 c0 -25 4 -45 8 -45 5 0 9 20 11 45 1 26 -2 45 -9 45 -5 0
-10 -20 -10 -45z"/>
<path d="M3975 4280 c-3 -5 -1 -10 4 -10 6 0 11 5 11 10 0 6 -2 10 -4 10 -3 0
-8 -4 -11 -10z"/>
<path d="M3941 4224 c0 -11 3 -14 6 -6 3 7 2 16 -1 19 -3 4 -6 -2 -5 -13z"/>
<path d="M12930 4224 c0 -17 22 -14 28 4 2 7 -3 12 -12 12 -9 0 -16 -7 -16
-16z"/>
<path d="M12934 4172 c2 -15 5 -30 5 -34 1 -5 5 -8 9 -8 14 0 10 59 -5 64 -10
4 -12 -2 -9 -22z"/>
<path d="M3981 4124 c-1 -12 12 -39 27 -60 31 -42 102 -101 102 -85 0 6 -4 11
-10 11 -5 0 -10 9 -10 21 0 11 -4 18 -9 15 -11 -7 -28 13 -33 39 -2 11 -10 19
-19 17 -9 -1 -22 12 -32 30 -13 27 -16 29 -16 12z"/>
<path d="M11680 4085 c0 -13 9 -30 19 -37 18 -13 19 -21 11 -89 -5 -40 -12
-86 -15 -101 -5 -19 -1 -37 13 -59 l20 -32 -30 -65 c-27 -60 -29 -68 -18 -111
6 -25 19 -54 27 -64 15 -16 15 -21 -6 -61 -24 -50 -30 -140 -12 -175 20 -37
28 -23 27 49 0 57 4 75 23 101 23 31 23 35 -3 104 -22 58 -19 103 10 161 l26
51 -21 42 c-33 64 -37 120 -12 176 l21 48 -40 43 c-37 40 -40 42 -40 19z"/>
<path d="M5630 3885 c0 -26 60 -57 100 -51 25 4 45 0 68 -14 42 -26 84 -25
108 1 14 16 26 20 53 15 34 -5 91 16 91 34 0 14 -17 13 -26 -1 -4 -7 -25 -10
-54 -7 -35 4 -52 0 -70 -14 -29 -23 -72 -23 -101 1 -19 15 -34 18 -69 14 -37
-4 -48 -1 -64 16 -22 25 -36 27 -36 6z"/>
<path d="M3911 3755 l0 -78 19 39 c25 47 25 52 1 88 l-19 29 -1 -78z"/>
<path d="M11580 3826 c0 -5 6 -17 14 -25 8 -9 22 -30 30 -46 13 -25 16 -27 16
-9 0 12 -13 37 -30 55 -16 19 -30 30 -30 25z"/>
<path d="M5554 3785 c-20 -18 -25 -28 -16 -32 7 -2 19 -18 28 -34 13 -25 20
-30 47 -27 44 4 66 42 46 84 -20 41 -66 45 -105 9z"/>
<path d="M6062 3794 c-42 -29 -20 -104 30 -104 12 0 36 15 54 34 36 37 35 40
-23 70 -39 19 -34 19 -61 0z"/>
<path d="M11330 3790 c-34 -34 -20 -81 29 -93 17 -4 31 3 56 27 35 35 34 42
-5 69 -32 22 -56 21 -80 -3z"/>
<path d="M5341 3647 c-16 -21 -26 -77 -12 -77 6 0 11 9 11 21 0 11 5 29 11 41
13 24 6 34 -10 15z"/>
<path d="M11634 3620 c7 -27 6 -49 -1 -75 -9 -27 -9 -35 0 -32 29 9 36 117 9
134 -18 10 -18 9 -8 -27z"/>
<path d="M5764 3619 c-5 -8 6 -25 30 -45 31 -27 37 -38 34 -66 -3 -28 -7 -33
-32 -36 -16 -2 -33 1 -39 7 -15 15 -37 14 -37 -2 0 -28 53 -44 137 -43 70 1
86 5 104 23 30 29 15 49 -17 24 -36 -29 -68 -15 -72 31 -3 30 2 38 32 59 20
13 36 30 36 37 0 17 -45 15 -60 -3 -17 -20 -32 -19 -74 5 -26 16 -36 18 -42 9z"/>
<path d="M3914 3492 l1 -78 19 40 c22 47 22 45 -2 85 l-18 30 0 -77z"/>
<path d="M4844 3508 c17 -58 17 -89 1 -137 -20 -61 -54 -91 -104 -91 -20 0
-42 -4 -50 -9 -26 -17 1 -31 58 -31 68 0 96 17 134 82 36 62 41 98 21 147 -21
53 -74 87 -60 39z"/>
<path d="M12080 3501 c-25 -25 -30 -37 -30 -79 0 -64 20 -111 64 -150 56 -49
155 -55 164 -9 3 14 -4 17 -33 17 -57 0 -94 25 -121 83 -28 61 -29 76 -10 122
20 46 3 54 -34 16z"/>
<path d="M11611 3460 c2 -63 -1 -76 -21 -98 -26 -28 -7 -29 20 -2 22 22 28 93
9 120 -7 11 -9 7 -8 -20z"/>
<path d="M5350 3417 c0 -13 10 -32 22 -43 l21 -19 -18 27 c-9 16 -15 35 -11
43 3 8 1 15 -4 15 -6 0 -10 -11 -10 -23z"/>
<path d="M6035 3318 c-72 -38 -132 -49 -220 -38 -44 5 -99 16 -122 24 -47 17
-57 7 -18 -18 39 -26 135 -44 215 -40 81 4 165 37 188 74 15 25 8 25 -43 -2z"/>
<path d="M11323 3325 c-3 -9 -3 -18 0 -21 9 -9 27 6 27 22 0 19 -19 18 -27 -1z"/>
<path d="M11470 1506 c0 -8 5 -18 10 -21 6 -3 10 3 10 14 0 12 -4 21 -10 21
-5 0 -10 -6 -10 -14z"/>
<path d="M5490 1445 c0 -8 5 -15 10 -15 6 0 10 7 10 15 0 8 -4 15 -10 15 -5 0
-10 -7 -10 -15z"/>
<path d="M11471 1444 c0 -11 3 -14 6 -6 3 7 2 16 -1 19 -3 4 -6 -2 -5 -13z"/>
<path d="M5490 1289 c0 -5 5 -7 10 -4 6 3 10 8 10 11 0 2 -4 4 -10 4 -5 0 -10
-5 -10 -11z"/>
<path d="M11892 1238 c-15 -15 -16 -54 -2 -63 6 -3 10 -15 10 -26 0 -36 38
-95 81 -125 49 -34 109 -37 159 -8 32 20 35 41 4 35 -40 -8 -107 -1 -130 14
-28 18 -59 75 -75 139 -11 46 -25 56 -47 34z"/>
<path d="M5035 1200 c-8 -9 -15 -24 -15 -33 0 -25 -46 -94 -75 -113 -20 -13
-38 -15 -90 -9 -74 8 -84 -3 -32 -36 41 -26 111 -21 156 11 31 21 81 111 81
144 0 9 5 16 10 16 6 0 10 8 10 18 0 23 -25 24 -45 2z"/>
<path d="M5426 993 c-12 -12 -6 -41 9 -47 13 -4 14 -2 5 14 -8 15 -8 20 2 20
40 -1 52 -55 13 -55 -29 -1 -44 -13 -42 -35 1 -20 17 -29 17 -10 0 6 5 10 11
10 6 0 8 -8 4 -19 -3 -11 -1 -22 5 -26 12 -7 25 23 35 82 6 39 5 43 -23 57
-16 8 -32 12 -36 9z"/>
<path d="M5518 289 c-10 -5 -18 -18 -18 -29 0 -10 -6 -25 -12 -32 -33 -36 -57
-78 -60 -108 -4 -42 11 -48 140 -49 79 -1 95 2 112 19 21 21 26 85 14 161 l-6
36 -58 0 c-32 1 -66 3 -76 7 -11 3 -27 1 -36 -5z"/>
</g>
</svg>
